<svg width="60" height="59" viewBox="0 0 60 59" fill="none" xmlns="http://www.w3.org/2000/svg">
<path d="M8.14687 43.7808H1.51574C0.694637 43.7808 0 44.4754 0 45.2965V56.9799C0 57.801 0.694637 58.4957 1.51574 58.4957H8.14687C8.96797 58.4957 9.66261 57.801 9.66261 56.9799V45.2965C9.72572 44.4754 9.03107 43.7808 8.14687 43.7808Z" fill="#00ADEE"/>
<path d="M23.2406 32.9822H16.6095C15.7884 32.9822 15.0938 33.6768 15.0938 34.4979V56.9174C15.0938 57.7386 15.7884 58.4332 16.6095 58.4332H23.2406C24.0617 58.4332 24.7564 57.7386 24.7564 56.9174V34.4979C24.7562 33.6768 24.1246 32.9822 23.2406 32.9822Z" fill="#00ADEE"/>
<path d="M38.3344 22.2458H31.7032C30.8821 22.2458 30.1875 22.9405 30.1875 23.7616V56.9804C30.1875 57.8015 30.8821 58.4961 31.7032 58.4961H38.3344C39.1555 58.4961 39.8501 57.8015 39.8501 56.9804V23.7616C39.8501 22.9405 39.1555 22.2458 38.3344 22.2458Z" fill="#00ADEE"/>
<path d="M59.6164 10.4361L51.2801 0.520978C50.6485 -0.173659 49.575 -0.173659 48.9435 0.520978L40.6072 10.4361C39.7861 11.4465 40.481 12.9622 41.7441 12.9622H45.2806V56.9803C45.2806 57.8014 45.9753 58.496 46.7964 58.496H53.4275C54.2486 58.496 54.9433 57.8014 54.9433 56.9803V12.9622H58.4798C59.7425 12.9622 60.5005 11.4467 59.6163 10.4361H59.6164Z" fill="#00ADEE"/>
</svg>
