<svg width="72" height="55" viewBox="0 0 72 55" fill="none" xmlns="http://www.w3.org/2000/svg">
<path d="M35.6834 27.094C23.7172 27.094 13.9927 37.2174 13.9927 49.7101C13.9909 51.2256 14.1353 52.7375 14.4235 54.2252H56.9513C57.2357 52.7369 57.3798 51.2253 57.3821 49.7101C57.3821 37.2174 47.6655 27.094 35.6834 27.094Z" fill="#00ADEE"/>
<path d="M46.4377 6.43551C49.8601 12.3705 47.8232 19.956 41.8883 23.3783C35.9533 26.8009 28.3679 24.764 24.9449 18.8289C21.5225 12.8941 23.5595 5.30843 29.4943 1.8861C35.4293 -1.53623 43.0147 0.500414 46.4377 6.43551Z" fill="#00ADEE"/>
<path d="M49.0931 18.2705C51.1443 19.761 53.6965 20.3915 56.2057 20.0278C58.715 19.6637 60.9828 18.3341 62.5258 16.3221C64.0691 14.3103 64.7654 11.7751 64.4664 9.25739C64.1672 6.7395 62.8969 4.43821 60.9253 2.84351C58.9541 1.24882 56.4378 0.487436 53.9132 0.721109C51.3883 0.954822 49.0548 2.16549 47.4097 4.09491C48.8945 6.11706 49.8302 8.48949 50.1252 10.9808C50.4202 13.4722 50.0644 15.9976 49.093 18.3107L49.0931 18.2705Z" fill="#00ADEE"/>
<path d="M54.7894 21.8766C50.6026 21.8849 46.5733 23.475 43.5093 26.3281C44.0118 26.5117 44.5065 26.7031 44.9931 26.9183C47.8416 28.1882 50.4137 30.0039 52.5637 32.2631C55.5077 35.3149 57.6104 39.0779 58.6665 43.1843H71.4304C71.6649 42.0126 71.7878 40.8211 71.7974 39.6263C71.7974 29.838 64.1789 21.8765 54.7894 21.8765L54.7894 21.8766Z" fill="#00ADEE"/>
<path d="M26.3815 26.9343C26.9718 26.671 27.5623 26.4318 28.1684 26.2243C25.1176 23.4337 21.1349 21.8832 17 21.8767C7.61847 21.8767 0 29.8382 0 39.6265C0.00155813 40.8206 0.116597 42.012 0.343044 43.1845H12.7001C13.7586 39.0763 15.8607 35.3114 18.8029 32.2554C20.9586 30.0052 23.533 28.1976 26.3815 26.9343Z" fill="#00ADEE"/>
<path d="M17.0083 20.1133C18.9188 20.1234 20.7896 19.5682 22.3851 18.5178C21.3365 16.1339 20.9485 13.5122 21.2614 10.9266C21.5744 8.34117 22.577 5.8877 24.1642 3.82334C21.9413 1.41062 18.6516 0.281546 15.4156 0.820091C12.1794 1.35893 9.43327 3.49274 8.11154 6.49545C6.79001 9.49817 7.07148 12.9646 8.86023 15.7147C10.649 18.4648 13.7035 20.1275 16.9839 20.1371L17.0083 20.1133Z" fill="#00ADEE"/>
</svg>
