<svg width="59" height="60" viewBox="0 0 59 60" fill="none" xmlns="http://www.w3.org/2000/svg">
<path fill-rule="evenodd" clip-rule="evenodd" d="M59 29.7251C59 46.0174 45.7923 59.2251 29.5 59.2251C13.2077 59.2251 0 46.0174 0 29.7251C0 13.4328 13.2077 0.225098 29.5 0.225098C45.7923 0.225098 59 13.4328 59 29.7251ZM32.45 14.9751C32.45 13.3459 31.1292 12.0251 29.5 12.0251C27.8708 12.0251 26.55 13.3459 26.55 14.9751V29.7251C26.55 30.5076 26.8609 31.2579 27.4141 31.811L36.2641 40.661C37.4161 41.8129 39.2839 41.8129 40.436 40.661C41.5879 39.5089 41.5879 37.6412 40.436 36.4891L32.4498 28.5029L32.45 14.9751Z" fill="#00ADEE"/>
</svg>
