<svg width="73" height="49" viewBox="0 0 73 49" fill="none" xmlns="http://www.w3.org/2000/svg">
<path d="M55.5382 36.9225L37.284 15.6656C37.2505 15.6213 37.2197 15.5751 37.1917 15.5273C36.9235 14.9581 36.4223 14.5327 35.8171 14.3602C35.1567 14.2372 34.3272 14.5599 33.3598 15.3201C28.1839 19.8818 23.4302 21.2718 18.8378 19.5668L18.7226 19.5208C16.0118 18.154 14.6448 16.8023 14.4373 15.2664C14.2301 13.7302 15.2975 11.9333 17.1637 10.0364C17.2959 9.91745 17.3192 9.71872 17.2177 9.57272C17.1165 9.42648 16.9222 9.37848 16.7645 9.46048L13.3394 10.9964V5.39801C13.3394 4.94604 13.1597 4.51231 12.8399 4.19259C12.5202 3.87286 12.0867 3.69312 11.6345 3.69312H1.7049C1.25268 3.69312 0.819193 3.87286 0.49947 4.19259C0.179739 4.51232 0 4.94601 0 5.39801V41.1846C0 41.6368 0.179739 42.0705 0.49947 42.3903C0.8192 42.71 1.2527 42.8895 1.7049 42.8895H11.6345C12.0867 42.8895 12.5202 42.71 12.8399 42.3903C13.1597 42.0705 13.3394 41.6368 13.3394 41.1846V33.5051L31.5859 46.7292C31.6259 46.7449 31.6624 46.7684 31.6934 46.7984C36.4241 50.6382 46.8605 46.0305 52.574 41.2155C55.2389 38.9732 55.8531 37.514 55.6459 37.0763L55.6456 37.076C55.6014 37.0313 55.5651 36.9795 55.5381 36.9225L55.5382 36.9225ZM6.67343 13.9915C5.9785 13.9915 5.31204 13.7152 4.82081 13.2235C4.32959 12.7318 4.05414 12.065 4.05458 11.3701C4.05533 10.6752 4.33231 10.0089 4.82426 9.5182C5.31648 9.02748 5.98342 8.75274 6.67842 8.75402C7.37335 8.75527 8.03936 9.03301 8.52957 9.5255C9.01979 10.0182 9.29425 10.6854 9.29202 11.3804C9.29202 12.0743 9.01603 12.7395 8.52458 13.2295C8.03335 13.7192 7.36714 13.9935 6.67343 13.9915Z" fill="#00ADEE"/>
<path d="M70.8203 3.69318H60.883C60.4315 3.69543 59.9991 3.87567 59.6798 4.1949C59.3605 4.51412 59.1803 4.9466 59.1781 5.39809V10.6047C58.9899 10.4665 58.7894 10.3457 58.5791 10.244L38.7199 0.828921C37.675 0.331455 36.5115 0.135461 35.3611 0.262954C34.2107 0.390446 33.1185 0.836415 32.2079 1.55087L17.3173 13.1623C16.89 13.491 16.6501 14.0075 16.6746 14.546C16.6991 15.0844 16.9848 15.5769 17.44 15.8656C20.1251 17.6873 23.5489 18.0282 26.5402 16.7718C28.2311 16.0596 29.7345 14.9662 30.933 13.577C33.4441 10.7587 35.8632 10.9814 38.2209 13.454L57.2277 35.0104C57.4641 35.2846 57.7696 35.4911 58.1123 35.6086C58.4551 35.7259 58.823 35.7501 59.178 35.6784V41.1845C59.1803 41.6362 59.3605 42.0687 59.6797 42.388C59.999 42.7072 60.4314 42.8874 60.8829 42.8894H70.8202C71.2724 42.8894 71.7059 42.7099 72.0256 42.3902C72.3454 42.0705 72.5251 41.6368 72.5251 41.1845V5.39797C72.5251 4.946 72.3454 4.51227 72.0256 4.19254C71.7059 3.87281 71.2724 3.69307 70.8202 3.69307L70.8203 3.69318ZM65.8516 38.3355C65.1554 38.3375 64.4869 38.0623 63.9942 37.5703C63.5013 37.0786 63.2248 36.4106 63.2253 35.7141C63.226 35.0179 63.504 34.3505 63.9977 33.8597C64.4917 33.3688 65.1606 33.0948 65.8568 33.0981C66.553 33.1016 67.2195 33.382 67.7085 33.8778C68.1975 34.3735 68.4687 35.0437 68.4627 35.7399C68.4567 36.4292 68.1792 37.0881 67.6902 37.5741C67.2015 38.06 66.5408 38.3335 65.8516 38.3355Z" fill="#00ADEE"/>
</svg>
