<svg width="50" height="50" viewBox="0 0 50 50" fill="none" xmlns="http://www.w3.org/2000/svg">
<path d="M28.4542 4.8875C21.9542 -1.62917 11.3875 -1.62917 4.8875 4.8875C-1.62917 11.3875 -1.62917 21.9542 4.8875 28.4542C11.3875 34.9708 21.9542 34.9708 28.4542 28.4542C34.9708 21.9542 34.9708 11.3875 28.4542 4.8875ZM22.1042 8.20425C21.8874 8.65429 21.4375 8.90429 20.9709 8.90429C20.7874 8.90429 20.6042 8.87093 20.4209 8.78759C18.071 7.63751 15.2709 7.63751 12.9209 8.78759C12.2876 9.08756 11.5375 8.8208 11.2377 8.20409C10.9379 7.58738 11.2043 6.83738 11.8212 6.53743C14.8544 5.05417 18.4878 5.05417 21.5212 6.53743C22.1379 6.83739 22.4046 7.58738 22.1047 8.20409L22.1042 8.20425Z" fill="#00ADEE"/>
<path d="M48.5375 48.5375C46.5874 50.4875 43.4208 50.4875 41.4708 48.5375L30.8208 37.8875C30.1543 37.2374 30.1543 36.1708 30.8208 35.5209L27.6543 32.3708C28.5544 31.7376 29.421 31.0209 30.2209 30.2208C31.0207 29.4208 31.7375 28.5541 32.371 27.6542L35.521 30.8207C36.1711 30.1542 37.2378 30.1542 37.8876 30.8207L48.5376 41.4707C50.4876 43.4207 50.4876 46.5873 48.5376 48.5373L48.5375 48.5375Z" fill="#00ADEE"/>
</svg>
