<svg width="46" height="46" viewBox="0 0 46 46" fill="none" xmlns="http://www.w3.org/2000/svg">
<path fill-rule="evenodd" clip-rule="evenodd" d="M45.532 7.32186C46.6443 10.8856 45.774 14.9229 42.919 17.7437C39.8393 20.7865 35.3249 21.5484 31.5266 20.0295L25.7004 25.7859L30.694 30.7197H36.5181L41.3359 35.4798V41.24L36.5181 46H30.6872L25.8703 41.24V35.4856L20.8767 30.5518L9.5093 41.7825C5.67359 45.5723 -0.125 39.8428 3.71016 36.0537L15.0775 24.8226L10.6411 20.4402H4.81694L0 15.6801V9.91908L4.81694 5.15986H10.6479L15.4648 9.91908V15.6743L19.9012 20.0567L25.7275 14.3002C24.1895 10.5473 24.9606 6.08676 28.041 3.04401C30.8955 0.223689 34.9816 -0.636679 38.5888 0.462277L33.4833 5.50659C31.9796 6.9923 31.9796 9.42407 33.4833 10.9105L34.9578 12.3666C36.4615 13.853 38.9228 13.8523 40.4264 12.3666L45.5319 7.32232L45.532 7.32186ZM4.89313 9.99322C6.46126 8.44388 9.0046 8.44388 10.5728 9.99322C12.1409 11.5431 12.1409 14.0554 10.5728 15.6048C9.00464 17.1541 6.4613 17.1541 4.89313 15.6048C3.32495 14.0555 3.32499 11.5432 4.89313 9.99322ZM30.7638 35.5543C32.3325 34.005 34.8753 34.005 36.4435 35.5543C38.0116 37.1037 38.0116 39.6159 36.4435 41.1651C34.8754 42.7144 32.3326 42.7144 30.7638 41.1651C29.1957 39.6157 29.1957 37.1035 30.7638 35.5543Z" fill="#00ADEE"/>
</svg>
