<svg width="46" height="46" viewBox="0 0 46 46" fill="none" xmlns="http://www.w3.org/2000/svg">
<path d="M46 26.7849V19.2154L41.0584 18.0509C40.6224 16.5225 40.0409 14.9941 39.2416 13.6838L41.9303 9.38952L36.5529 4.07615L32.2654 6.76905C30.8846 5.96848 29.4312 5.38609 27.9053 4.94944L26.7426 0L19.185 0.000236928L18.0224 4.94968C16.4964 5.38634 14.9704 5.96872 13.6622 6.76928L9.37468 4.07615L4.06972 9.38951L6.75835 13.6838C5.95905 15.0668 5.37758 16.5225 4.94162 18.0509L0 19.2154V26.7121L4.94162 27.8766C5.37759 29.405 5.95905 30.9334 6.75835 32.2437L4.06972 36.6105L9.37468 41.9238L13.6622 39.2309C15.043 40.0315 16.4964 40.6139 18.0224 41.0506L19.185 46H26.6699L27.8326 41.0506C29.3586 40.6139 30.8846 40.0315 32.1927 39.2309L36.4803 41.9238L41.7853 36.6105L39.0966 32.3162C39.8959 30.9332 40.4774 29.4775 40.9133 27.9491L46 26.7849ZM22.9639 30.7881C18.6763 30.7881 15.1883 27.2943 15.1883 23.0002C15.1883 18.7058 18.6763 15.2123 22.9639 15.2123C27.2515 15.2123 30.7395 18.7058 30.7395 23.0002C30.7395 27.2945 27.2515 30.7881 22.9639 30.7881Z" fill="#00ADEE"/>
</svg>
