<svg width="50" height="49" viewBox="0 0 50 49" fill="none" xmlns="http://www.w3.org/2000/svg">
<path d="M33.6707 43.3882V41.5176C33.6707 40.5253 33.2765 39.5737 32.5749 38.8722C31.8734 38.1706 30.9217 37.7764 29.9295 37.7764H6.54709C5.55488 37.7764 4.60322 38.1706 3.90177 38.8722C3.20013 39.5737 2.8059 40.5254 2.8059 41.5176V43.3882C1.80337 43.3882 0.877247 43.923 0.375877 44.7911C-0.125292 45.6592 -0.125292 46.7289 0.375877 47.597C0.877247 48.465 1.80337 48.9999 2.8059 48.9999H33.6707C34.6733 48.9999 35.5994 48.465 36.1008 47.597C36.6019 46.7289 36.6019 45.6592 36.1008 44.7911C35.5994 43.923 34.6733 43.3882 33.6707 43.3882Z" fill="#00ADEE"/>
<path d="M48.4511 39.2355L29.2683 20.0527L33.3555 15.9654C33.7429 16.1651 34.173 16.2678 34.6088 16.2647C35.3526 16.2641 36.0656 15.9681 36.5913 15.442C37.1168 14.9161 37.4122 14.2028 37.4122 13.4592C37.4124 12.7155 37.1172 12.0021 36.5917 11.476L25.9667 0.86995C25.3391 0.21155 24.4315 -0.101762 23.5312 0.029329C22.6312 0.160465 21.8506 0.719703 21.437 1.5297C21.0233 2.33969 21.0278 3.29993 21.4492 4.10603L17.362 8.19331L15.3791 6.16368C14.86 5.64012 14.1523 5.34686 13.415 5.35C12.6718 5.34825 11.9581 5.6413 11.4308 6.16508C10.9036 6.68885 10.6054 7.40047 10.6021 8.14362C10.599 8.88677 10.8907 9.60114 11.4135 10.1294L13.3963 12.1122L9.35585 16.1995C8.83054 15.9628 8.24657 15.8879 7.67855 15.9846C7.11034 16.0812 6.58408 16.3449 6.16652 16.742C5.63826 17.2685 5.34131 17.9836 5.34131 18.7295C5.34131 19.4754 5.63826 20.1905 6.16652 20.717L16.7072 31.2951C17.338 31.9144 18.2234 32.2002 19.0971 32.0666C19.9708 31.9329 20.7303 31.3955 21.1473 30.6163C21.5641 29.8369 21.5893 28.9067 21.2153 28.1058L25.3026 24.0185L44.4855 43.2013C45.0116 43.7269 45.7247 44.0219 46.4683 44.0219C47.2118 44.0219 47.925 43.7268 48.4511 43.2013C48.9766 42.6752 49.2716 41.9621 49.2716 41.2185C49.2716 40.475 48.9766 39.7618 48.4511 39.2357L48.4511 39.2355Z" fill="#00ADEE"/>
</svg>
