<svg width="36" height="46" viewBox="0 0 36 46" fill="none" xmlns="http://www.w3.org/2000/svg">
<path d="M23.6655 1.66418V12.8911H34.8924L23.6655 1.66418Z" fill="#00ADEE"/>
<path d="M23.6651 16.5714C21.6153 16.5714 19.9848 14.8944 19.9848 12.8912V0.872314H3.49385C1.58392 0.872314 0 2.45623 0 4.36617V41.6339C0 43.5439 1.58392 45.1278 3.49385 45.1278H32.19C34.1 45.1278 35.6839 43.5439 35.6839 41.6339L35.684 16.5714L23.6651 16.5714ZM26.1807 37.3948H9.50336C8.47857 37.3948 7.63997 36.5562 7.63997 35.5779C7.63997 34.5531 8.47857 33.7145 9.50336 33.7145H26.1807C27.2055 33.7145 28.0441 34.5531 28.0441 35.5779C28.0441 36.6027 27.2055 37.3948 26.1807 37.3948ZM26.1807 27.9847H9.50336C8.47857 27.9847 7.63997 27.1461 7.63997 26.1213C7.63997 25.0965 8.47857 24.3044 9.50336 24.3044H26.1807C27.2055 24.3044 28.0441 25.143 28.0441 26.1213C28.0441 27.1462 27.2055 27.9847 26.1807 27.9847Z" fill="#00ADEE"/>
<rect x="5" y="23" width="26" height="17" fill="#00ADEE"/>
</svg>
