<svg width="44" height="44" viewBox="0 0 44 44" fill="none" xmlns="http://www.w3.org/2000/svg">
<path d="M33.6533 29.3597L35.8614 42.9613C35.9184 43.3038 35.7799 43.63 35.4947 43.8338C35.2095 44.0377 34.8673 44.054 34.5577 43.8827L23.1913 37.5793C22.8165 37.3754 22.4091 37.2694 22.0017 37.2694C21.5943 37.2694 21.1787 37.3754 20.8121 37.5793L9.44573 43.8827C9.14426 44.054 8.79389 44.0295 8.50873 43.8338C8.22355 43.63 8.08504 43.3038 8.14207 42.9613L10.3502 29.3597C10.4724 28.5932 10.2279 27.7941 9.68202 27.2396L0.254667 17.536C0.0183744 17.2914 -0.0631057 16.957 0.0509665 16.6309C0.156891 16.3128 0.425775 16.0845 0.759822 16.0356L13.6419 14.0622C14.4567 13.9399 15.1493 13.418 15.4997 12.6678L21.2033 0.477035C21.5048 -0.159012 22.507 -0.159012 22.8003 0.477035L28.5039 12.6678C28.8543 13.418 29.5469 13.9399 30.3617 14.0622L43.2438 16.0356C43.5778 16.0845 43.8386 16.3128 43.9526 16.6309C44.0586 16.957 43.9852 17.2914 43.7489 17.536L34.3216 27.2317C33.7757 27.7944 33.5231 28.5854 33.6534 29.3601L33.6533 29.3597Z" fill="#00ADEE"/>
</svg>
