<svg width="48" height="44" viewBox="0 0 48 44" fill="none" xmlns="http://www.w3.org/2000/svg">
<path d="M48 18.6162V25.3852C47.9989 26.1725 47.7196 26.9347 47.2105 27.5408C46.7016 28.1468 45.9944 28.5586 45.2109 28.7055C43.7766 33.1466 40.9485 37.0223 37.1351 39.7715C33.3222 42.5211 28.722 44.0019 24.0002 44C23.5456 44 23.1095 43.8218 22.7881 43.5043C22.4665 43.187 22.286 42.7566 22.286 42.3077V40.6155C22.3277 40.0514 22.6522 39.5451 23.1508 39.2664C23.6493 38.9877 24.2561 38.9733 24.7675 39.2278C25.2791 39.4825 25.628 39.9728 25.6973 40.5342C29.2293 40.2202 32.5992 38.9281 35.4197 36.8063C38.2402 34.6846 40.3966 31.8198 41.64 28.5413C40.9911 28.298 40.4323 27.8662 40.0373 27.3026C39.6425 26.7391 39.4302 26.0704 39.4286 25.3853V18.6162C39.4307 17.9302 39.6441 17.261 40.0402 16.6974C40.4364 16.1339 40.9966 15.7024 41.6468 15.4602C40.3006 11.9133 37.8895 8.85674 34.7358 6.69877C31.5825 4.54098 27.8372 3.38474 24 3.38474C20.1627 3.38474 16.4174 4.54094 13.2641 6.69877C10.1106 8.85656 7.69937 11.9132 6.3531 15.4602C7.00329 15.7024 7.56346 16.1339 7.95971 16.6974C8.35578 17.261 8.56917 17.9301 8.57131 18.6162V25.3853C8.57131 26.2829 8.21007 27.1438 7.56703 27.7784C6.9242 28.4132 6.05203 28.7698 5.14279 28.7698H3.42853C2.51923 28.7698 1.64711 28.4132 1.00428 27.7784C0.361275 27.1438 0 26.2828 0 25.3853V18.6162C0.00107144 17.829 0.280353 17.0668 0.789475 16.4607C1.29841 15.8547 2.00555 15.4429 2.78908 15.296C4.22477 10.8556 7.0533 6.98095 10.8658 4.23137C14.6786 1.48179 19.278 0 23.9993 0C28.7206 0 33.3203 1.48179 37.1329 4.23137C40.9455 6.98077 43.7741 10.8555 45.2095 15.296C45.9931 15.4429 46.7002 15.8547 47.2092 16.4607C47.7183 17.0668 47.9975 17.829 47.9986 18.6162L48 18.6162ZM37.7144 22.0007C37.7144 18.4102 36.2696 14.9668 33.6977 12.428C31.1258 9.88904 27.6374 8.4628 24.0005 8.4628C20.3635 8.4628 16.8751 9.88904 14.3032 12.428C11.7313 14.9669 10.2865 18.4104 10.2865 22.0007C10.2865 25.591 11.7313 29.0347 14.3032 31.5735C16.8752 34.1124 20.3635 35.5387 24.0005 35.5387C27.6365 35.5346 31.1222 34.1069 33.6936 31.5691C36.2644 29.031 37.7107 25.5898 37.7148 22.0004L37.7144 22.0007Z" fill="#00ADEE"/>
</svg>
