<svg width="48" height="36" viewBox="0 0 48 36" fill="none" xmlns="http://www.w3.org/2000/svg">
<path d="M41.3811 0.000101367C37.7433 0.000101367 34.8127 2.94518 34.8127 6.60094C34.8127 8.47956 35.5706 10.1552 36.8337 11.3739L32.438 20.3612C32.2358 20.3612 31.9832 20.3104 31.781 20.3104C30.821 20.3104 29.9116 20.5136 29.103 20.9196L22.3325 15.4866C22.8883 14.5219 23.1914 13.4049 23.1914 12.1862C23.1914 8.53046 20.2608 5.58538 16.623 5.58538C12.9852 5.58538 10.0546 8.53046 10.0546 12.1862C10.0546 14.0141 10.762 15.6391 11.9746 16.8068L8.0842 23.0015C7.57894 22.9 7.07368 22.7983 6.56842 22.7983C2.93061 22.7983 0 25.7434 0 29.3992C0 33.0549 2.93061 36 6.56842 36C10.2062 36 13.1368 33.0549 13.1368 29.3992C13.1368 27.7744 12.5306 26.2511 11.5706 25.0832L15.6127 18.6347C15.9663 18.6854 16.3201 18.7362 16.6737 18.7362C17.6337 18.7362 18.4926 18.5331 19.301 18.1777L26.122 23.6107C25.5663 24.5755 25.2631 25.6925 25.2631 26.8604C25.2631 30.5162 28.1937 33.4612 31.8316 33.4612C35.4694 33.4612 38.4 30.5162 38.4 26.8604C38.4 24.8801 37.5411 23.1537 36.1768 21.9351L40.522 13.1002C40.8252 13.1509 41.1283 13.1509 41.4316 13.1509C45.0694 13.1509 48 10.2058 48 6.55007C47.9998 2.8943 45.0187 0 41.3811 0L41.3811 0.000101367Z" fill="#00ADEE"/>
</svg>
