<svg width="49" height="36" viewBox="0 0 49 36" fill="none" xmlns="http://www.w3.org/2000/svg">
<path d="M36.0998 25.7286H46.3998V30.8643C46.3998 33.7063 44.0998 36 41.2498 36L5.15003 35.9998C2.29993 35.9998 0 33.7063 0 30.8641V5.13571C0 2.2937 2.29997 0 5.15003 0H41.2502C44.1001 0 46.4002 2.29358 46.4002 5.13571V10.2714H36.1002C31.8502 10.2714 28.3501 13.7119 28.3501 17.9999C28.3501 22.2381 31.8502 25.7284 36.1002 25.7284L36.0998 25.7286ZM48.9998 15.4073V20.543C48.9998 21.9392 47.8497 23.1357 46.3999 23.1357H36.0998C33.2499 23.1357 30.9498 20.8421 30.9498 18C30.9498 15.158 33.2498 12.8643 36.0998 12.8643H46.3999C47.85 12.8643 49 14.0112 49 15.4073L48.9998 15.4073ZM38.6998 18C38.6998 16.6038 37.5497 15.4073 36.0998 15.4073C34.6498 15.4073 33.4998 16.554 33.4998 18C33.4998 19.446 34.6498 20.5927 36.0997 20.5927C37.5497 20.5927 38.6998 19.3962 38.6998 18Z" fill="#00ADEE"/>
</svg>
