<svg width="229" height="43" viewBox="0 0 229 43" fill="none" xmlns="http://www.w3.org/2000/svg">
<path d="M0.449219 5.60571V0.421779H25.4782V5.60571H0.449219ZM10.032 41.0201V1.06292H15.8954V41.0201H10.032Z" fill="#231F20"/>
<path d="M24.6611 30.5384V9.84483H30.2675V30.5384H24.6611ZM30.2675 19.1455L28.0856 17.6481C28.3425 15.1047 29.0839 13.1011 30.3096 11.6291C31.5354 10.157 33.3045 9.42303 35.617 9.42303C36.6448 9.42303 37.5504 9.58754 38.3339 9.91654C39.1174 10.2455 39.8377 10.7812 40.4948 11.5236L36.986 15.594C36.6743 15.2228 36.2952 14.9613 35.8529 14.801C35.4106 14.6449 34.9052 14.5648 34.3365 14.5648C33.136 14.5648 32.1588 14.936 31.4048 15.6783C30.6466 16.4165 30.2675 17.5722 30.2675 19.1455Z" fill="#231F20"/>
<path d="M50.503 30.9686C48.6202 30.9686 46.9311 30.4962 45.4315 29.5556C43.9362 28.6108 42.7567 27.3285 41.9017 25.7003C41.0466 24.0722 40.6169 22.2458 40.6169 20.2169C40.6169 18.1627 41.0466 16.3195 41.9017 14.6913C42.7567 13.0632 43.9362 11.7767 45.4315 10.8361C46.9268 9.89123 48.6328 9.42303 50.5451 9.42303C51.9984 9.42303 53.3126 9.72251 54.4794 10.3215C55.6461 10.9204 56.5897 11.7514 57.3015 12.8059C58.0134 13.8604 58.3967 15.0752 58.4557 16.446V23.9456C58.3967 25.2912 58.0218 26.4975 57.3226 27.5647C56.6234 28.6361 55.6841 29.4712 54.5004 30.0702C53.321 30.6691 51.9857 30.9686 50.503 30.9686ZM51.5729 25.7847C53.1399 25.7847 54.412 25.2574 55.3808 24.1987C56.3496 23.1442 56.834 21.8155 56.834 20.2127C56.834 19.1287 56.6065 18.1585 56.1516 17.2981C55.6967 16.4418 55.0817 15.7796 54.3109 15.3072C53.54 14.8347 52.6302 14.6027 51.5729 14.6027C50.5452 14.6027 49.6395 14.8432 48.856 15.3325C48.0726 15.8175 47.4576 16.4755 47.0153 17.3023C46.573 18.129 46.354 19.0865 46.354 20.1747C46.354 21.2883 46.573 22.2584 47.0153 23.0894C47.4576 23.9203 48.0768 24.5741 48.8771 25.0592C49.6774 25.5443 50.5746 25.7847 51.5729 25.7847ZM56.4928 30.5384V24.9706L57.4321 19.9132L56.4928 14.9022V9.84483H62.1414V30.5384H56.4928Z" fill="#231F20"/>
<path d="M67.0191 30.5384V9.84481H72.6256V30.5384H67.0191ZM80.8816 30.5384V18.6731C80.8816 17.4457 80.4983 16.446 79.7274 15.6741C78.9566 14.9022 77.9751 14.5184 76.7747 14.5184C75.9743 14.5184 75.2625 14.6913 74.6349 15.033C74.0072 15.3746 73.5144 15.8681 73.1606 16.5093C72.8025 17.1546 72.6256 17.8759 72.6256 18.6731L70.4437 17.5174C70.4437 15.9187 70.7933 14.5099 71.4925 13.2951C72.1918 12.0803 73.1606 11.1313 74.4032 10.448C75.6416 9.76466 77.0484 9.41879 78.6196 9.41879C80.1571 9.41879 81.5218 9.79841 82.7055 10.5534C83.8891 11.3127 84.8242 12.2955 85.5066 13.5103C86.189 14.725 86.5344 16.0158 86.5344 17.3866V30.5384H80.8816Z" fill="#231F20"/>
<path d="M98.2106 31.0108C97.0101 31.0108 95.8518 30.8589 94.7229 30.5594C93.594 30.26 92.5621 29.8171 91.6227 29.2308C90.6792 28.6487 89.8662 27.9527 89.1838 27.1513L92.5663 23.7685C93.2486 24.5952 94.0616 25.211 95.0051 25.6117C95.9487 26.0124 96.9722 26.2107 98.0885 26.2107C99.0025 26.2107 99.6975 26.0757 100.186 25.8015C100.671 25.5316 100.915 25.152 100.915 24.6669C100.915 24.0975 100.658 23.663 100.144 23.3593C99.6302 23.0598 98.9815 22.7941 98.198 22.5663C97.4145 22.3385 96.5805 22.0939 95.6959 21.8366C94.8114 21.5793 93.9774 21.2292 93.1939 20.7863C92.4104 20.3434 91.7617 19.7234 91.2478 18.922C90.7339 18.1205 90.477 17.0956 90.477 15.8344C90.477 14.5226 90.8056 13.3711 91.4627 12.3841C92.1156 11.397 93.0465 10.642 94.2427 10.1148C95.439 9.58751 96.8543 9.32177 98.4802 9.32177C100.19 9.32177 101.74 9.61281 103.122 10.1991C104.504 10.7854 105.654 11.6754 106.568 12.8776L103.185 16.3068C102.558 15.5644 101.85 15.0161 101.067 14.6576C100.283 14.299 99.449 14.1219 98.5645 14.1219C97.7094 14.1219 97.0691 14.2526 96.6395 14.5099C96.214 14.7672 95.9992 15.1215 95.9992 15.5813C95.9992 16.0959 96.2393 16.4882 96.7237 16.7581C97.2081 17.0281 97.8484 17.2812 98.6487 17.5089C99.449 17.7367 100.283 17.9856 101.151 18.2597C102.018 18.5339 102.848 18.9093 103.632 19.3944C104.415 19.8794 105.06 20.5248 105.557 21.322C106.058 22.1234 106.307 23.1526 106.307 24.4096C106.307 26.4384 105.582 28.0455 104.125 29.2266C102.659 30.4203 100.692 31.0108 98.2106 31.0108Z" fill="#231F20"/>
<path d="M124.52 31.0108C122.41 31.0108 120.422 30.6101 118.551 29.8129C116.681 29.0157 115.043 27.9021 113.632 26.4722C112.216 25.0465 111.113 23.3889 110.317 21.5034C109.516 19.618 109.12 17.5933 109.12 15.421C109.12 13.2488 109.525 11.2283 110.338 9.35976C111.151 7.49118 112.271 5.84616 113.695 4.43313C115.118 3.0201 116.791 1.92763 118.703 1.15574C120.611 0.383841 122.679 0 124.908 0C127.389 0 129.663 0.459763 131.731 1.37085C133.8 2.28616 135.531 3.5853 136.929 5.26829L132.953 9.25431C132.039 7.99735 130.885 7.03986 129.486 6.38185C128.088 5.72384 126.546 5.39484 124.866 5.39484C122.953 5.39484 121.264 5.81664 119.794 6.66024C118.324 7.50384 117.178 8.68067 116.348 10.1949C115.523 11.7092 115.106 13.4512 115.106 15.421C115.106 17.4499 115.519 19.2215 116.348 20.7315C117.174 22.2458 118.295 23.4268 119.706 24.2662C121.117 25.1098 122.709 25.5316 124.478 25.5316C126.386 25.5316 128.012 25.1899 129.356 24.5024C130.699 23.8149 131.723 22.7941 132.439 21.4401C133.151 20.0819 133.509 18.42 133.509 16.446L137.317 19.1034L124.141 18.9726V13.8309H139.503V14.6871C139.503 18.2851 138.859 21.3009 137.578 23.7263C136.293 26.1559 134.524 27.9781 132.271 29.1886C130.013 30.4034 127.431 31.0108 124.52 31.0108Z" fill="#231F20"/>
<path d="M143.345 30.5384V9.84483H148.951V30.5384H143.345ZM148.951 19.1455L146.769 17.6481C147.026 15.1047 147.767 13.1011 148.993 11.6291C150.219 10.157 151.988 9.42303 154.301 9.42303C155.328 9.42303 156.234 9.58754 157.017 9.91654C157.801 10.2455 158.521 10.7812 159.178 11.5236L155.67 15.594C155.358 15.2228 154.979 14.9613 154.536 14.801C154.094 14.6449 153.589 14.5648 153.02 14.5648C151.82 14.5648 150.842 14.936 150.088 15.6783C149.33 16.4165 148.951 17.5722 148.951 19.1455Z" fill="#231F20"/>
<path d="M170.256 31.0108C168.171 31.0108 166.297 30.5342 164.629 29.5767C162.961 28.6192 161.638 27.32 160.674 25.6792C159.701 24.0384 159.216 22.1867 159.216 20.1283C159.216 18.0995 159.701 16.2773 160.674 14.666C161.642 13.0505 162.961 11.7682 164.629 10.8108C166.297 9.85327 168.171 9.37242 170.256 9.37242C172.367 9.37242 174.254 9.84484 175.926 10.7855C177.594 11.7303 178.921 13.0126 179.902 14.6407C180.888 16.2689 181.377 18.0995 181.377 20.1241C181.377 22.153 180.892 23.9962 179.923 25.6497C178.955 27.3074 177.628 28.615 175.943 29.5725C174.262 30.5342 172.367 31.0108 170.256 31.0108ZM170.256 25.7425C171.31 25.7425 172.245 25.5021 173.058 25.017C173.871 24.5319 174.498 23.8739 174.94 23.0472C175.383 22.2205 175.602 21.263 175.602 20.179C175.602 19.0949 175.366 18.1374 174.894 17.3065C174.422 16.4755 173.795 15.8302 173.011 15.3578C172.228 14.8854 171.305 14.6491 170.252 14.6491C169.224 14.6491 168.31 14.8854 167.514 15.3578C166.714 15.8302 166.095 16.4798 165.652 17.3065C165.21 18.1332 164.991 19.0907 164.991 20.179C164.991 21.263 165.21 22.2205 165.652 23.0472C166.095 23.8782 166.714 24.5319 167.514 25.017C168.319 25.4979 169.229 25.7425 170.256 25.7425Z" fill="#231F20"/>
<path d="M193.748 30.9264C191.949 30.9264 190.34 30.5468 188.912 29.7918C187.489 29.0368 186.372 27.9696 185.576 26.5988C184.776 25.2279 184.38 23.6419 184.38 21.8451V9.84905H190.029V21.7143C190.029 22.5706 190.172 23.3087 190.458 23.9203C190.74 24.5361 191.17 25.0001 191.743 25.3123C192.316 25.6244 192.986 25.7847 193.752 25.7847C194.923 25.7847 195.833 25.4262 196.49 24.7133C197.147 24.0005 197.476 23.0008 197.476 21.7143V9.84905H203.082V21.8451C203.082 23.6462 202.682 25.2321 201.886 26.5988C201.086 27.9696 199.982 29.0326 198.571 29.7918C197.147 30.5468 195.542 30.9264 193.748 30.9264Z" fill="#231F20"/>
<path d="M207.522 41.0201V9.84483H213.128V15.2861L212.185 20.2971L213.082 25.3545V41.0201H207.522ZM218.988 30.9686C217.505 30.9686 216.165 30.6691 214.965 30.0702C213.769 29.4712 212.804 28.6318 212.075 27.5647C211.347 26.4975 210.955 25.287 210.9 23.9456V16.5768C210.959 15.2059 211.351 13.9827 212.075 12.9155C212.8 11.8484 213.764 10.9963 214.965 10.3679C216.161 9.73937 217.505 9.42303 218.988 9.42303C220.896 9.42303 222.619 9.89545 224.143 10.8361C225.668 11.7809 226.86 13.0632 227.715 14.6913C228.57 16.3195 229 18.1627 229 20.2169C229 22.2458 228.566 24.0722 227.694 25.7003C226.822 27.3285 225.635 28.615 224.122 29.5556C222.61 30.4962 220.9 30.9686 218.988 30.9686ZM218.048 25.7847C219.076 25.7847 219.973 25.5443 220.744 25.055C221.515 24.5699 222.122 23.9077 222.564 23.0641C223.006 22.2205 223.225 21.2588 223.225 20.1747C223.225 19.0907 223.006 18.1332 222.564 17.3023C222.122 16.4755 221.515 15.8175 220.744 15.3325C219.973 14.8474 219.059 14.6027 218.006 14.6027C217.008 14.6027 216.115 14.8432 215.331 15.3325C214.548 15.8175 213.933 16.4755 213.491 17.3023C213.048 18.129 212.829 19.0865 212.829 20.1747C212.829 21.2588 213.036 22.2247 213.449 23.0641C213.861 23.9077 214.476 24.5741 215.289 25.055C216.102 25.5443 217.021 25.7847 218.048 25.7847Z" fill="#231F20"/>
<path d="M103.632 39.7336H24.8675V40.8894H103.632V39.7336Z" fill="#00ADEE"/>
<path d="M204.582 39.7336H125.818V40.8894H204.582V39.7336Z" fill="#00ADEE"/>
<path d="M106.804 42.3361V38.2911H108.552C108.914 38.2911 109.226 38.3501 109.487 38.4682C109.748 38.5863 109.95 38.755 110.093 38.9744C110.237 39.1937 110.304 39.4552 110.304 39.7589C110.304 40.0584 110.232 40.3199 110.093 40.535C109.95 40.7544 109.748 40.9189 109.487 41.0328C109.226 41.1509 108.914 41.2057 108.552 41.2057H107.322L107.739 40.7966V42.3361H106.804ZM107.739 40.902L107.322 40.4633H108.501C108.788 40.4633 109.002 40.4001 109.146 40.2735C109.289 40.147 109.36 39.9783 109.36 39.7547C109.36 39.5312 109.289 39.3582 109.146 39.2359C109.002 39.1136 108.788 39.0503 108.501 39.0503H107.322L107.739 38.6032V40.902ZM109.369 42.3361L108.358 40.8683H109.356L110.38 42.3361H109.369Z" fill="#231F20"/>
<path d="M111.976 41.5853H114.175V42.3361H111.045V38.291H114.099V39.0419H111.976V41.5853ZM111.905 39.9192H113.851V40.6489H111.905V39.9192Z" fill="#231F20"/>
<path d="M114.916 42.3361V38.291H115.691L118.075 41.2057H117.701V38.291H118.623V42.3361H117.856L115.464 39.4215H115.839V42.3361H114.916Z" fill="#231F20"/>
<path d="M120.422 42.3361V39.0545H119.129V38.291H122.65V39.0545H121.357V42.3361H120.422Z" fill="#231F20"/>
</svg>
