<svg width="368" height="69" viewBox="0 0 368 69" fill="none" xmlns="http://www.w3.org/2000/svg">
<path d="M0 9.0256V0.678711H40.3003V9.0256H0ZM15.4297 66.0479V1.71104H24.8706V66.0479H15.4297Z" fill="white"/>
<path d="M38.9846 49.1707V15.851H48.0118V49.1707H38.9846ZM48.0118 30.8265L44.4986 28.4155C44.9123 24.3202 46.106 21.0942 48.0796 18.7239C50.0533 16.3536 52.9018 15.1719 56.6253 15.1719C58.2802 15.1719 59.7384 15.4368 60.9999 15.9665C62.2614 16.4962 63.4211 17.3588 64.4792 18.5541L58.8295 25.108C58.3276 24.5103 57.7172 24.0893 57.0051 23.8312C56.293 23.5799 55.4791 23.4508 54.5635 23.4508C52.6305 23.4508 51.057 24.0485 49.843 25.2438C48.6222 26.4324 48.0118 28.2933 48.0118 30.8265Z" fill="white"/>
<path d="M80.5939 49.8634C77.5622 49.8634 74.8425 49.1027 72.428 47.5882C70.0203 46.0669 68.1213 44.0022 66.7444 41.3807C65.3676 38.7591 64.6759 35.8184 64.6759 32.5516C64.6759 29.2441 65.3676 26.2761 66.7444 23.6546C68.1213 21.033 70.0203 18.9616 72.428 17.4471C74.8357 15.9257 77.5826 15.1719 80.6617 15.1719C83.0016 15.1719 85.1177 15.6541 86.9964 16.6185C88.8751 17.5829 90.3943 18.9209 91.5405 20.6188C92.6867 22.3167 93.3039 24.2726 93.3988 26.4799V38.5554C93.3039 40.7219 92.7003 42.6643 91.5744 44.3826C90.4485 46.1076 88.9361 47.4524 87.0303 48.4168C85.1312 49.3812 82.9812 49.8634 80.5939 49.8634ZM82.3166 41.5165C84.8396 41.5165 86.8878 40.6676 88.4478 38.9629C90.0077 37.265 90.7877 35.1256 90.7877 32.5448C90.7877 30.7994 90.4214 29.2373 89.6889 27.8518C88.9564 26.4731 87.9662 25.4068 86.7251 24.6462C85.4839 23.8855 84.0189 23.512 82.3166 23.512C80.6617 23.512 79.2035 23.8991 77.942 24.6869C76.6805 25.468 75.6903 26.5274 74.9782 27.8586C74.266 29.1897 73.9133 30.7314 73.9133 32.4837C73.9133 34.2767 74.266 35.8387 74.9782 37.1767C75.6903 38.5146 76.6873 39.5673 77.9759 40.3484C79.2645 41.1294 80.7092 41.5165 82.3166 41.5165ZM90.2383 49.1707V40.2057L91.7507 32.0626L90.2383 23.9942V15.851H99.3333V49.1707H90.2383Z" fill="white"/>
<path d="M107.187 49.1716V15.852H116.214V49.1716H107.187ZM129.508 49.1716V30.0668C129.508 28.0904 128.891 26.4808 127.649 25.238C126.408 23.9951 124.828 23.3771 122.895 23.3771C121.606 23.3771 120.46 23.6555 119.45 24.2057C118.439 24.7558 117.646 25.5504 117.076 26.5827C116.499 27.6218 116.214 28.7832 116.214 30.0668L112.701 28.2059C112.701 25.6319 113.264 23.3635 114.39 21.4075C115.516 19.4515 117.076 17.9234 119.077 16.8232C121.071 15.7229 123.336 15.166 125.866 15.166C128.341 15.166 130.539 15.7773 132.444 16.993C134.35 18.2154 135.856 19.7979 136.955 21.7539C138.053 23.7099 138.61 25.7881 138.61 27.9954V49.1716H129.508Z" fill="white"/>
<path d="M157.41 49.9312C155.477 49.9312 153.612 49.6867 151.794 49.2045C149.977 48.7223 148.315 48.0092 146.803 47.0652C145.283 46.1279 143.974 45.0073 142.876 43.7169L148.322 38.27C149.42 39.6012 150.729 40.5928 152.249 41.238C153.768 41.8832 155.416 42.2024 157.213 42.2024C158.685 42.2024 159.804 41.985 160.591 41.5436C161.371 41.1089 161.764 40.4977 161.764 39.7167C161.764 38.7998 161.351 38.1002 160.523 37.6112C159.696 37.129 158.651 36.7012 157.39 36.3344C156.128 35.9677 154.785 35.5738 153.361 35.1595C151.937 34.7452 150.594 34.1815 149.332 33.4684C148.071 32.7552 147.026 31.7569 146.199 30.4665C145.371 29.1761 144.958 27.5257 144.958 25.495C144.958 23.3828 145.487 21.5287 146.545 19.9395C147.596 18.3503 149.095 17.1346 151.021 16.2856C152.947 15.4367 155.226 15.0088 157.844 15.0088C160.598 15.0088 163.094 15.4774 165.318 16.4214C167.543 17.3655 169.394 18.7985 170.866 20.7341L165.42 26.2557C164.409 25.0604 163.27 24.1775 162.008 23.6002C160.747 23.0229 159.404 22.7376 157.98 22.7376C156.603 22.7376 155.572 22.9482 154.88 23.3625C154.195 23.7767 153.849 24.3472 153.849 25.0875C153.849 25.9161 154.236 26.5477 155.016 26.9824C155.796 27.4171 156.827 27.8245 158.115 28.1913C159.404 28.558 160.747 28.9587 162.144 29.4002C163.541 29.8417 164.877 30.4461 166.139 31.2271C167.4 32.0082 168.438 33.0473 169.238 34.3309C170.045 35.6213 170.446 37.2785 170.446 39.3024C170.446 42.5691 169.279 45.1567 166.932 47.0584C164.572 48.9804 161.405 49.9312 157.41 49.9312Z" fill="white"/>
<path d="M199.772 49.9319C196.374 49.9319 193.173 49.2867 190.162 48.0031C187.15 46.7194 184.512 44.9265 182.24 42.6241C179.961 40.3286 178.184 37.6595 176.902 34.6236C175.614 31.5878 174.976 28.3278 174.976 24.8301C174.976 21.3324 175.627 18.0793 176.936 15.0706C178.245 12.0619 180.049 9.41317 182.342 7.13798C184.634 4.8628 187.327 3.10377 190.406 1.8609C193.478 0.61804 196.808 0 200.396 0C204.391 0 208.053 0.740285 211.383 2.20727C214.714 3.68105 217.501 5.77286 219.753 8.48271L213.35 14.9008C211.879 12.8769 210.02 11.3352 207.769 10.2757C205.517 9.21621 203.034 8.68647 200.328 8.68647C197.249 8.68647 194.529 9.36563 192.162 10.724C189.795 12.0823 187.951 13.9771 186.615 16.4153C185.285 18.8535 184.614 21.6584 184.614 24.8301C184.614 28.0969 185.278 30.9493 186.615 33.3807C187.944 35.8189 189.748 37.7206 192.02 39.0721C194.292 40.4304 196.856 41.1096 199.704 41.1096C202.777 41.1096 205.395 40.5595 207.558 39.4524C209.722 38.3454 211.37 36.7018 212.523 34.5217C213.669 32.3348 214.246 29.6589 214.246 26.4805L220.377 30.7592L199.162 30.5486V22.2697H223.897V23.6484C223.897 29.4416 222.859 34.2976 220.797 38.2028C218.729 42.1147 215.88 45.0487 212.252 46.9979C208.616 48.9539 204.459 49.9319 199.772 49.9319Z" fill="white"/>
<path d="M230.082 49.1707V15.851H239.109V49.1707H230.082ZM239.109 30.8265L235.596 28.4155C236.01 24.3202 237.204 21.0942 239.177 18.7239C241.151 16.3536 243.999 15.1719 247.723 15.1719C249.378 15.1719 250.836 15.4368 252.097 15.9665C253.359 16.4962 254.519 17.3588 255.577 18.5541L249.927 25.108C249.425 24.5103 248.815 24.0893 248.103 23.8312C247.391 23.5799 246.577 23.4508 245.661 23.4508C243.728 23.4508 242.155 24.0485 240.941 25.2438C239.72 26.4324 239.109 28.2933 239.109 30.8265Z" fill="white"/>
<path d="M273.414 49.9327C270.057 49.9327 267.039 49.1653 264.353 47.6236C261.667 46.0819 259.538 43.9901 257.985 41.3481C256.418 38.7062 255.638 35.7247 255.638 32.4104C255.638 29.1436 256.418 26.2096 257.985 23.6153C259.545 21.0141 261.667 18.9494 264.353 17.4077C267.039 15.866 270.057 15.0918 273.414 15.0918C276.812 15.0918 279.851 15.8525 282.543 17.367C285.229 18.8883 287.365 20.9529 288.946 23.5745C290.533 26.1961 291.319 29.1436 291.319 32.4036C291.319 35.6704 290.54 38.6383 288.98 41.3006C287.42 43.9697 285.283 46.0751 282.57 47.6168C279.864 49.1653 276.812 49.9327 273.414 49.9327ZM273.414 41.45C275.11 41.45 276.616 41.0629 277.924 40.2819C279.233 39.5008 280.244 38.4413 280.956 37.1102C281.668 35.779 282.021 34.2373 282.021 32.4919C282.021 30.7464 281.641 29.2048 280.882 27.8668C280.122 26.5289 279.111 25.4897 277.85 24.7291C276.588 23.9684 275.103 23.5881 273.408 23.5881C271.753 23.5881 270.281 23.9684 268.999 24.7291C267.71 25.4897 266.713 26.5356 266.001 27.8668C265.289 29.198 264.936 30.7397 264.936 32.4919C264.936 34.2373 265.289 35.779 266.001 37.1102C266.713 38.4481 267.71 39.5008 268.999 40.2819C270.294 41.0561 271.759 41.45 273.414 41.45Z" fill="white"/>
<path d="M311.239 49.7956C308.343 49.7956 305.752 49.1843 303.453 47.9686C301.161 46.7529 299.363 45.0346 298.081 42.8274C296.793 40.6201 296.155 38.0665 296.155 35.1732V15.8579H305.25V34.9627C305.25 36.3414 305.481 37.5299 305.942 38.5147C306.397 39.5063 307.088 40.2534 308.011 40.7559C308.933 41.2585 310.011 41.5166 311.246 41.5166C313.131 41.5166 314.596 40.9393 315.654 39.7915C316.712 38.6437 317.241 37.0341 317.241 34.9627V15.8579H326.269V35.1732C326.269 38.0733 325.624 40.6269 324.342 42.8274C323.054 45.0346 321.277 46.7461 319.005 47.9686C316.712 49.1843 314.128 49.7956 311.239 49.7956Z" fill="white"/>
<path d="M333.417 66.0478V15.851H342.444V24.6122L340.925 32.6806L342.37 40.8238V66.0478H333.417ZM351.879 49.8634C349.491 49.8634 347.334 49.3812 345.401 48.4168C343.475 47.4524 341.922 46.1009 340.749 44.3826C339.575 42.6643 338.945 40.7151 338.857 38.5554V26.6904C338.952 24.4832 339.582 22.5136 340.749 20.7953C341.915 19.077 343.468 17.7051 345.401 16.6932C347.328 15.6812 349.491 15.1719 351.879 15.1719C354.951 15.1719 357.725 15.9325 360.18 17.4471C362.635 18.9684 364.555 21.033 365.931 23.6546C367.308 26.2761 368 29.2441 368 32.5516C368 35.8184 367.301 38.7591 365.898 41.3807C364.494 44.0022 362.581 46.0737 360.146 47.5882C357.711 49.1027 354.958 49.8634 351.879 49.8634ZM350.366 41.5165C352.021 41.5165 353.466 41.1294 354.707 40.3416C355.948 39.5605 356.925 38.4942 357.637 37.1359C358.349 35.7776 358.702 34.2291 358.702 32.4837C358.702 30.7382 358.349 29.1965 357.637 27.8586C356.925 26.5274 355.948 25.468 354.707 24.6869C353.466 23.9059 351.994 23.512 350.298 23.512C348.691 23.512 347.253 23.8991 345.991 24.6869C344.73 25.468 343.74 26.5274 343.028 27.8586C342.315 29.1897 341.963 30.7314 341.963 32.4837C341.963 34.2291 342.295 35.7844 342.96 37.1359C343.624 38.4942 344.615 39.5673 345.924 40.3416C347.233 41.1294 348.711 41.5165 350.366 41.5165Z" fill="white"/>
<path d="M166.139 63.9771H39.3169V65.8379H166.139V63.9771Z" fill="white"/>
<path d="M328.683 63.9771H201.861V65.8379H328.683V63.9771Z" fill="white"/>
<path d="M171.246 68.1674V61.6543H174.061C174.644 61.6543 175.146 61.7494 175.566 61.9396C175.987 62.1297 176.312 62.4014 176.543 62.7545C176.773 63.1077 176.882 63.5288 176.882 64.0178C176.882 64.5 176.767 64.9211 176.543 65.2674C176.312 65.6206 175.987 65.8855 175.566 66.0688C175.146 66.259 174.644 66.3473 174.061 66.3473H172.08L172.752 65.6885V68.1674H171.246ZM172.752 65.8583L172.08 65.152H173.979C174.44 65.152 174.786 65.0501 175.017 64.8464C175.247 64.6426 175.363 64.3709 175.363 64.011C175.363 63.651 175.247 63.3726 175.017 63.1756C174.786 62.9787 174.44 62.8768 173.979 62.8768H172.08L172.752 62.1569V65.8583ZM175.376 68.1674L173.749 65.804H175.356L177.004 68.1674H175.376Z" fill="white"/>
<path d="M179.575 66.9585H183.115V68.1674H178.076V61.6543H182.993V62.8632H179.575V66.9585ZM179.459 64.2759H182.593V65.4508H179.459V64.2759Z" fill="white"/>
<path d="M184.309 68.1674V61.6543H185.557L189.395 66.3473H188.792V61.6543H190.277V68.1674H189.043L185.19 63.4744H185.794V68.1674H184.309Z" fill="white"/>
<path d="M193.173 68.1674V62.8836H191.091V61.6543H196.761V62.8836H194.679V68.1674H193.173Z" fill="white"/>
</svg>
