<svg width="45" height="46" viewBox="0 0 45 46" fill="none" xmlns="http://www.w3.org/2000/svg">
<path d="M3.86767 3.86657L7.97608 3.86657L7.97608 6.81492C7.97608 9.37671 10.0545 11.455 12.6162 11.455L13.4378 11.455C15.9995 11.455 18.0778 9.37655 18.0778 6.81492L18.0778 3.86657L26.8263 3.86658L26.8263 6.81492C26.8263 9.37671 28.9048 11.455 31.4664 11.455L32.3365 11.455C34.8983 11.455 36.9766 9.37655 36.9766 6.81492L36.9766 3.86658L41.085 3.86658C43.26 3.86658 45 5.60657 45 7.7816L45 42.0022C45 44.1772 43.26 45.9172 41.085 45.9172L3.916 45.9172C1.74096 45.9172 0.000976853 44.1772 0.000977043 42.0022L0.000980035 7.7816C-0.0473215 5.60656 1.69263 3.86657 3.86767 3.86657ZM5.84933 38.0872C5.84933 39.1504 6.71943 40.0205 7.7827 40.0205L37.1699 40.0205C38.2331 40.0205 39.1032 39.1504 39.1032 38.0872L39.1032 20.9769C39.1032 19.8651 38.2331 19.0435 37.1699 19.0435L7.83103 19.0435C6.76776 19.0435 5.89767 19.9136 5.89767 20.9769L5.89751 38.0872L5.84933 38.0872Z" fill="#00ADEE"/>
<path d="M32.2881 9.0867L31.4665 9.0867C30.2098 9.0867 29.1948 8.07172 29.1948 6.81508L29.1948 2.465C29.1948 1.11156 30.3066 -3.71978e-07 31.6598 -2.53674e-07L32.0949 -2.15641e-07C33.4483 -9.73199e-08 34.5599 1.11177 34.5599 2.465L34.5599 6.81508C34.608 8.07156 33.593 9.0867 32.2881 9.0867L32.2881 9.0867Z" fill="#00ADEE"/>
<path d="M13.486 9.0867L12.6644 9.0867C11.4077 9.0867 10.3928 8.07172 10.3928 6.81508L10.3928 2.465C10.3928 1.11156 11.5045 -3.71834e-07 12.8578 -2.5353e-07L13.2928 -2.15497e-07C14.6462 -9.7176e-08 15.7578 1.11177 15.7578 2.465L15.7578 6.81508C15.7577 8.07156 14.7427 9.0867 13.486 9.0867L13.486 9.0867Z" fill="#00ADEE"/>
<path d="M30.2097 22.4269L34.4147 22.4269C35.0915 22.4269 35.6714 23.0068 35.6714 23.6835L35.6714 26.777C35.6714 27.4537 35.0915 28.0336 34.4147 28.0336L30.2097 28.0336C29.5329 28.0336 28.953 27.4537 28.953 26.777L28.953 23.6835C28.953 23.0068 29.4847 22.4269 30.2097 22.4269Z" fill="#00ADEE"/>
<path d="M20.3498 22.4269L24.5549 22.4269C25.2316 22.4269 25.8115 23.0068 25.8115 23.6835L25.8115 26.777C25.8115 27.4537 25.2316 28.0336 24.5549 28.0336L20.3498 28.0336C19.6731 28.0336 19.0932 27.4537 19.0932 26.777L19.0932 23.6835C19.0932 23.0068 19.6731 22.4269 20.3498 22.4269Z" fill="#00ADEE"/>
<path d="M10.5378 22.4269L14.7429 22.4269C15.4196 22.4269 15.9995 23.0068 15.9995 23.6835L15.9995 26.777C15.9995 27.4537 15.4196 28.0336 14.7429 28.0336L10.5378 28.0336C9.86107 28.0336 9.28114 27.4537 9.28114 26.777L9.28114 23.6835C9.28099 23.0068 9.81278 22.4269 10.5378 22.4269Z" fill="#00ADEE"/>
<path d="M30.2097 30.9822L34.4147 30.9822C35.0915 30.9822 35.6714 31.5621 35.6714 32.2388L35.6714 35.3323C35.6714 36.009 35.0915 36.5889 34.4147 36.5889L30.2097 36.5889C29.5329 36.5889 28.953 36.009 28.953 35.3323L28.953 32.2388C28.953 31.5623 29.4847 30.9822 30.2097 30.9822Z" fill="#00ADEE"/>
<path d="M20.3498 30.9822L24.5549 30.9822C25.2316 30.9822 25.8115 31.5621 25.8115 32.2388L25.8115 35.3323C25.8115 36.009 25.2316 36.5889 24.5549 36.5889L20.3498 36.5889C19.6731 36.5889 19.0932 36.009 19.0932 35.3323L19.0932 32.2388C19.0932 31.5623 19.6731 30.9822 20.3498 30.9822Z" fill="#00ADEE"/>
<path d="M10.5378 30.9822L14.7429 30.9822C15.4196 30.9822 15.9995 31.5621 15.9995 32.2388L15.9995 35.3323C15.9995 36.009 15.4196 36.5889 14.7429 36.5889L10.5378 36.5889C9.86107 36.5889 9.28114 36.009 9.28114 35.3323L9.28114 32.2388C9.28099 31.5623 9.81278 30.9822 10.5378 30.9822Z" fill="#00ADEE"/>
</svg>
