<svg width="49" height="36" viewBox="0 0 49 36" fill="none" xmlns="http://www.w3.org/2000/svg">
<path d="M44.9283 0.00263451C43.9104 0.0339276 42.9448 0.447586 42.237 1.15559C32.6477 10.4443 25.3873 18.1503 16.3635 27.0212L6.45436 18.9217V18.9212C5.66367 18.2704 4.63781 17.9501 3.6023 18.0303C2.56728 18.111 1.60716 18.5853 0.933872 19.35C0.260556 20.1143 -0.0707945 21.1058 0.0126707 22.1067C0.0956335 23.1071 0.586839 24.0351 1.37751 24.6859L14.1002 35.0914L14.1007 35.0909C14.851 35.7118 15.8167 36.0355 16.8031 35.9969C17.7901 35.9588 18.7255 35.5612 19.4221 34.884C29.9422 24.6943 37.4451 16.54 47.8041 6.50617C48.57 5.79181 49.0015 4.80708 49 3.77829C48.998 2.74952 48.5634 1.76576 47.7955 1.05378C47.0276 0.341374 45.9926 -0.0380613 44.9292 0.00302033L44.9283 0.00263451Z" fill="#00ADEE"/>
</svg>
