<svg width="43" height="43" viewBox="0 0 43 43" fill="none" xmlns="http://www.w3.org/2000/svg">
<path d="M21.5 43C27.202 43 32.6708 40.7348 36.7028 36.7028C40.7348 32.6708 43 27.202 43 21.5C43 15.798 40.7348 10.3292 36.7028 6.2972C32.6708 2.2652 27.202 0 21.5 0C15.798 0 10.3292 2.26516 6.2972 6.2972C2.2652 10.3292 0 15.798 0 21.5C0.0064064 27.2 2.2736 32.6652 6.3044 36.6956C10.3352 40.726 15.8 42.9936 21.5 43ZM19.5 7.5C19.5 6.78548 19.8812 6.12516 20.5 5.76796C21.1188 5.41062 21.8812 5.41062 22.5 5.76796C23.1188 6.12515 23.5 6.78548 23.5 7.5V20.672L28.914 26.086C29.2929 26.4601 29.507 26.9701 29.5085 27.5026C29.5102 28.035 29.2995 28.5463 28.9229 28.9229C28.5463 29.2994 28.0351 29.5104 27.5026 29.5087C26.9701 29.507 26.4601 29.2931 26.0858 28.9142L20.0858 22.9142C19.7121 22.5382 19.5016 22.0301 19.4999 21.5001L19.5 7.5Z" fill="#00ADEE"/>
</svg>
