<svg width="46" height="46" viewBox="0 0 46 46" fill="none" xmlns="http://www.w3.org/2000/svg">
<path d="M44.4387 35.7725L36.6449 27.92C36.2092 27.4837 35.4347 27.4837 34.999 27.92L33.7888 29.1318L30.5455 25.9327C32.2882 23.2667 33.3533 20.116 33.3533 16.6745C33.3533 7.5132 25.8984 0 16.7009 0C7.50328 0 0 7.5132 0 16.7229C0 25.9327 7.50328 33.3974 16.7009 33.3974C20.0894 33.3974 23.2844 32.3795 25.9468 30.5859L29.1417 33.785L27.9315 34.9968C27.4958 35.4331 27.4958 36.2086 27.9315 36.6449L35.7253 44.449C36.7418 45.4669 38.0973 46 39.4043 46C40.7598 46 42.0667 45.5153 43.0832 44.449L44.4388 43.0917C46.5204 41.1045 46.5204 37.8082 44.4389 35.7724L44.4387 35.7725ZM6.5834 16.7229C6.5834 11.1486 11.0854 6.64066 16.6523 6.64066C22.2193 6.64066 26.7697 11.1486 26.7697 16.7229C26.7697 22.2972 22.2677 26.8051 16.7007 26.8051C11.1338 26.8051 6.5834 22.2972 6.5834 16.7229Z" fill="#00ADEE"/>
</svg>
