<svg width="14" height="14" viewBox="0 0 14 14" fill="none" xmlns="http://www.w3.org/2000/svg">
<path d="M9.91656 6.99966C9.91656 8.61048 8.61072 9.91632 6.99991 9.91632C5.38909 9.91632 4.08325 8.61048 4.08325 6.99966C4.08325 5.38885 5.38909 4.08301 6.99991 4.08301C8.61072 4.08301 9.91656 5.38885 9.91656 6.99966Z" fill="white"/>
<path d="M0 11.6666C0 12.9558 1.04418 14 2.33338 14H11.6666C12.9558 14 14 12.9558 14 11.6666V2.33338C14 1.04422 12.9558 0 11.6666 0H2.33338C1.04422 0 0 1.04418 0 2.33338V11.6666ZM11.6666 1.16669C12.3141 1.16669 12.8333 1.69164 12.8333 2.33336C12.8333 2.97498 12.3141 3.50004 11.6666 3.50004C11.025 3.50004 10.4999 2.97498 10.4999 2.33336C10.4999 1.69165 11.025 1.16669 11.6666 1.16669ZM7 2.91666C9.2516 2.91666 11.0833 4.74827 11.0833 7C11.0833 9.2516 9.25173 11.0833 7 11.0833C4.7484 11.0833 2.91666 9.2516 2.91666 7C2.91666 4.74827 4.7484 2.91666 7 2.91666Z" fill="white"/>
</svg>
