<svg width="14" height="12" viewBox="0 0 14 12" fill="none" xmlns="http://www.w3.org/2000/svg">
<path d="M7.3253 5.98699L13.2947 1.09434C12.9984 0.872101 12.638 0.751953 12.2676 0.751953H1.72905C1.35864 0.751953 0.998251 0.8721 0.701904 1.09434L6.67477 5.98699C6.76655 6.0621 6.88145 6.10312 7.00005 6.10312C7.11864 6.10312 7.23354 6.0621 7.32533 5.98699H7.3253Z" fill="white"/>
<path d="M7.97747 6.78126C7.70207 7.00701 7.35696 7.13034 7.00081 7.13034C6.64472 7.13034 6.29961 7.00701 6.02421 6.78126L0.0958501 1.92285C0.0327675 2.10334 0.000390887 2.29315 0 2.48435V9.55112C0.000445811 10.0096 0.182775 10.4491 0.50694 10.7733C0.831106 11.0974 1.27061 11.2797 1.72902 11.2801H12.271C12.7294 11.2797 13.1689 11.0974 13.4931 10.7733C13.8172 10.4491 13.9996 10.0096 14 9.55112V2.48435C13.9996 2.29315 13.9672 2.10334 13.9042 1.92285L7.97747 6.78126Z" fill="white"/>
</svg>
