<svg width="12" height="17" viewBox="0 0 12 17" fill="none" xmlns="http://www.w3.org/2000/svg">
<path fill-rule="evenodd" clip-rule="evenodd" d="M1.23838 3.54074e-05H10.7616C11.4428 3.54074e-05 12 0.54653 12 1.21457V15.7855C12 16.4535 11.4428 17 10.7616 17H1.23838C0.557202 17 0 16.4535 0 15.7855V1.21475C0 0.546689 0.55722 0 1.23838 0V3.54074e-05ZM7.75301 1.16553H4.24717C3.36937 1.16553 3.36937 2.4732 4.24717 2.4732H7.75283C8.63056 2.4732 8.63056 1.16553 7.75297 1.16553H7.75301ZM5.98839 15.8347C7.1776 15.8347 7.14245 14.1349 6.01181 14.1349C4.8226 14.1349 4.85745 15.8347 5.98839 15.8347Z" fill="white"/>
</svg>
