<svg width="54" height="53" viewBox="0 0 54 53" fill="none" xmlns="http://www.w3.org/2000/svg">
<path d="M37.3878 0C33.1932 0 29.249 1.63333 26.2813 4.60056C24.978 5.90387 23.9265 7.40312 23.1534 9.05723C22.4063 10.6564 21.9383 12.3609 21.7614 14.124C21.4162 17.5511 22.212 21.0212 24.0055 23.9342L1.02346 46.9158C0.863924 47.0753 0.863924 47.3351 1.02346 47.4935L5.60193 52.0725C5.76147 52.232 6.02013 52.232 6.17966 52.0725L10.47 47.7827L14.7598 52.0717C14.9188 52.2313 15.1774 52.2313 15.3369 52.0717L19.9148 47.4938C20.0744 47.3343 20.0744 47.0756 19.9148 46.9161L15.6258 42.6271L19.6267 38.6262L23.9165 42.9152C24.0755 43.0748 24.3347 43.0748 24.4936 42.9152L29.0715 38.3373C29.2311 38.1789 29.2311 37.9191 29.0715 37.7596L24.7831 33.4706L29.1622 29.091C32.0755 30.8831 35.5455 31.6795 38.9724 31.3351C40.735 31.157 42.4401 30.6884 44.0392 29.943C45.6933 29.1693 47.1933 28.1183 48.4958 26.8151C51.4625 23.8474 53.0964 19.9035 53.0975 15.7077C53.0975 11.5119 51.4631 7.56736 48.4958 4.60066C45.5281 1.63401 41.5842 0.000290025 37.3879 0.000290025L37.3878 0ZM43.298 21.6166C40.0403 24.8762 34.7372 24.8762 31.4781 21.6166C28.2203 18.3583 28.2203 13.0563 31.4792 9.79813C34.7383 6.53979 40.04 6.53979 43.2977 9.79813C46.5568 13.0565 46.5568 18.3584 43.2977 21.6166H43.298Z" fill="#00ADEE"/>
</svg>
