<svg width="48" height="44" viewBox="0 0 48 44" fill="none" xmlns="http://www.w3.org/2000/svg">
<path d="M9.562 4.781C9.562 7.4214 7.4214 9.562 4.781 9.562C2.1406 9.562 0 7.4214 0 4.781C0 2.1406 2.1406 0 4.781 0C7.4214 0 9.562 2.1406 9.562 4.781Z" fill="#00ADEE"/>
<path d="M19.1243 9.562H43.0293C45.6588 9.562 47.8103 7.41055 47.8103 4.781C47.8103 2.15145 45.6588 0 43.0293 0H19.1243C16.4947 0 14.3433 2.15145 14.3433 4.781C14.3433 7.41055 16.4947 9.562 19.1243 9.562Z" fill="#00ADEE"/>
<path d="M9.562 21.5145C9.562 24.1549 7.4214 26.2955 4.781 26.2955C2.1406 26.2955 0 24.1549 0 21.5145C0 18.8741 2.1406 16.7335 4.781 16.7335C7.4214 16.7335 9.562 18.8741 9.562 21.5145Z" fill="#00ADEE"/>
<path d="M43.0293 16.7335H19.1243C16.4947 16.7335 14.3433 18.885 14.3433 21.5145C14.3433 24.1441 16.4947 26.2955 19.1243 26.2955H43.0293C45.6588 26.2955 47.8103 24.1441 47.8103 21.5145C47.8103 18.885 45.6588 16.7335 43.0293 16.7335Z" fill="#00ADEE"/>
<path d="M9.562 38.248C9.562 40.8884 7.4214 43.029 4.781 43.029C2.1406 43.029 0 40.8884 0 38.248C0 35.6076 2.1406 33.467 4.781 33.467C7.4214 33.467 9.562 35.6076 9.562 38.248Z" fill="#00ADEE"/>
<path d="M43.0293 33.467H19.1243C16.4947 33.467 14.3433 35.6185 14.3433 38.248C14.3433 40.8776 16.4947 43.029 19.1243 43.029H43.0293C45.6588 43.029 47.8103 40.8776 47.8103 38.248C47.8103 35.6185 45.6588 33.467 43.0293 33.467Z" fill="#00ADEE"/>
</svg>
