<svg width="63" height="46" viewBox="0 0 63 46" fill="none" xmlns="http://www.w3.org/2000/svg">
<path d="M62.3439 9.79328C61.8676 9.19468 61.1845 8.85177 60.4711 8.85177H46.1395C45.0746 8.85177 44.1623 9.60529 43.7892 10.6678H26.8935V8.42962C28.15 8.2923 29.1277 7.2815 29.1277 6.05905V2.38679C29.1277 1.73515 28.8405 1.10506 28.3401 0.656627C27.8675 0.233138 27.2487 0 26.5996 0H12.2701C11.6197 0 11.0009 0.233145 10.5296 0.656627C10.0292 1.10532 9.74194 1.73544 9.74194 2.38679V6.05905C9.74194 6.71069 10.0292 7.34078 10.5296 7.78922C10.9302 8.14839 11.4356 8.36892 11.9762 8.42931V20.1732C11.4356 20.2326 10.9289 20.4555 10.5296 20.8133C10.0292 21.262 9.74194 21.8921 9.74194 22.5435V26.2158C9.74194 27.5301 10.8761 28.6012 12.27 28.6012H26.6002C27.9941 28.6012 29.1283 27.53 29.1283 26.2158V22.5435C29.1283 21.321 28.1503 20.3116 26.894 20.1729V17.9347H43.7897C44.1615 18.9983 45.0752 19.7508 46.1401 19.7508H60.4717C61.185 19.7508 61.8679 19.4079 62.3444 18.8093C62.7666 18.2787 62.9997 17.5905 62.9997 16.8722V11.7292C62.9992 11.0119 62.766 10.3238 62.3439 9.79313L62.3439 9.79328Z" fill="#00ADEE"/>
<path d="M33.0371 37.2372H32.1171V33.1955C32.1171 32.2945 31.4163 31.5609 30.5544 31.5609H4.04401C3.18208 31.5609 2.48133 32.2945 2.48133 33.1955V37.2372H1.56268C0.700751 37.2372 0 37.9707 0 38.8718V43.5976C0 44.4986 0.700751 45.2322 1.56268 45.2322H33.0367C33.8973 45.2322 34.598 44.4986 34.598 43.5976V38.8718C34.598 37.9704 33.8975 37.2372 33.0367 37.2372H33.0371Z" fill="#00ADEE"/>
</svg>
