<svg width="52" height="52" viewBox="0 0 52 52" fill="none" xmlns="http://www.w3.org/2000/svg">
<path d="M39.7039 25.7795C39.1319 25.7795 38.6641 26.2476 38.6641 26.8193C38.6641 27.8176 37.8531 28.6184 36.865 28.6184C36.2931 28.6184 35.8252 29.0864 35.8252 29.6582V33.2564C35.8252 33.8283 36.2933 34.2962 36.865 34.2962C37.8529 34.2962 38.6641 35.0969 38.6641 36.0952C38.6641 36.6672 39.1322 37.1351 39.7039 37.1351H50.9557C51.5381 37.1351 51.9955 36.6672 51.9955 36.0952V26.8191C51.9955 26.2472 51.5378 25.7793 50.9557 25.7793L39.7039 25.7795Z" fill="#00ADEE"/>
<path d="M52.0001 16.1468C52.0001 13.3602 49.7329 11.0926 46.9459 11.0926H34.5555C34.5452 11.0928 34.5357 11.0956 34.5253 11.0956H3.74371C3.74018 11.0956 3.73664 11.095 3.73291 11.095C3.47933 11.0986 2.9582 11.0362 2.9582 11.0362C1.84313 10.8848 0.82696 10.4214 0.00439453 9.73047V46.7673C0.00439453 49.554 2.27153 51.8215 5.05856 51.8215H46.9456C49.7328 51.8215 51.9998 49.5538 51.9998 46.7673V39.0217C51.6715 39.1391 51.3234 39.2147 50.9553 39.2147L39.7035 39.2149C38.074 39.2149 36.7326 37.9597 36.5954 36.3654C35.0005 36.2284 33.7447 34.8868 33.7447 33.2569V29.6578C33.7447 28.0277 35.0005 26.6863 36.5954 26.5492C36.7324 24.9548 38.074 23.6997 39.7035 23.6997H50.9553C51.3234 23.6997 51.6717 23.7751 51.9998 23.8928L52.0001 16.1468Z" fill="#00ADEE"/>
<path d="M3.74377 9.016H34.5254C35.0973 9.016 35.5652 8.54793 35.5652 7.97618V1.03981C35.5652 0.467858 35.0971 0 34.5254 0H3.74377C1.68479 0 0 1.67435 0 3.74377V5.27251C0 7.33131 1.6846 9.01609 3.74377 9.01609V9.016Z" fill="#00ADEE"/>
</svg>
