<svg width="44" height="52" viewBox="0 0 44 52" fill="none" xmlns="http://www.w3.org/2000/svg">
<path fill-rule="evenodd" clip-rule="evenodd" d="M43.9718 37.1971V8.8883C43.9718 7.5276 43.4051 6.23051 42.4084 5.30713C41.4116 4.38375 40.0755 3.91702 38.7196 4.01733L38.7075 4.01975C32.8028 4.52525 28.296 3.76064 25.3495 1.30315C23.4269 -0.472779 20.4858 -0.423979 18.6559 1.39103C15.8248 3.93913 11.3542 4.70859 5.3522 4.10034L5.34007 4.09792C3.96726 3.97336 2.61625 4.42764 1.60738 5.34862C0.598505 6.26959 0.0242443 7.57397 0.0242443 8.9398C0 15.2352 0 30.6697 0 37.1967C0 39.9496 1.54373 42.4731 3.99911 43.7238C7.88581 45.7076 15.0382 49.3549 18.6566 51.1992C20.748 52.2669 23.2249 52.2669 25.3163 51.1992L39.9738 43.7238C42.4289 42.4731 43.9729 39.9496 43.9729 37.1967L43.9718 37.1971ZM12.9298 27.4552L17.8157 32.3407C18.7684 33.2959 20.3174 33.2959 21.2701 32.3407L31.0416 22.5693C31.9944 21.6165 31.9944 20.0676 31.0416 19.1148C30.0891 18.1624 28.5402 18.1624 27.5874 19.1148L19.5429 27.1593L16.3845 24.0005C15.4317 23.0481 13.8828 23.0481 12.93 24.0005C11.9775 24.9533 11.9775 26.5022 12.93 27.455L12.9298 27.4552Z" fill="#00ADEE"/>
</svg>
