<svg width="52" height="52" viewBox="0 0 52 52" fill="none" xmlns="http://www.w3.org/2000/svg">
<path d="M26 0C19.1046 0 12.4908 2.73928 7.61516 7.61516C2.73907 12.491 0 19.1039 0 26C0 32.8961 2.73928 39.5092 7.61516 44.3848C12.491 49.2609 19.1039 52 26 52C32.8961 52 39.5092 49.2607 44.3848 44.3848C49.2609 39.509 52 32.8961 52 26C52 21.4361 50.7987 16.9528 48.5167 13C46.2348 9.04753 42.9525 5.76537 39.0003 3.48359C35.0479 1.20162 30.5646 0.000338872 26.0003 0.000338872L26 0ZM26 6.5C29.0935 6.50185 32.1422 7.23951 34.8942 8.65238C37.6462 10.065 40.0228 12.1124 41.8275 14.625H10.14C11.9477 12.1079 14.3292 10.0579 17.0876 8.64473C19.8456 7.23186 22.9009 6.49655 26 6.5ZM7.62125 32.5H13.0001C13.862 32.5 14.6886 32.8425 15.2982 33.4519C15.9075 34.0616 16.2501 34.8881 16.2501 35.75V42.8756C12.2363 40.5479 9.17861 36.871 7.62132 32.5H7.62125ZM35.75 42.8756V35.75C35.75 34.8881 36.0925 34.0615 36.7019 33.4519C37.3116 32.8425 38.1381 32.5 39 32.5H44.3788C42.8215 36.8709 39.7638 40.5478 35.75 42.8756ZM39 26C36.4142 26 33.9343 27.0273 32.1059 28.8557C30.2775 30.6843 29.2503 33.1642 29.2503 35.7497V45.2235C27.0992 45.5914 24.9014 45.5914 22.7503 45.2235V35.7497C22.7503 33.1639 21.723 30.6841 19.8946 28.8557C18.0659 27.0273 15.5861 26 13.0005 26H6.50054C6.50001 24.3554 6.70737 22.7175 7.11812 21.125H44.8831C45.2939 22.7175 45.5012 24.3554 45.5007 26H39Z" fill="#00ADEE"/>
</svg>
